<svg height="464pt" viewBox="0 -72 464.27283 464" width="464pt" xmlns="http://www.w3.org/2000/svg"><path d="m139.65625 290.613281c48.789062 34.632813 112.832031 39.136719 165.984375 11.667969 53.15625-27.472656 86.527344-82.316406 86.496094-142.148438 0-5.039062-.242188-9.921874-.71875-14.800781-36.941407 31.828125-76.890625 59.988281-119.28125 84.082031-42.0625 24.667969-86.433594 45.164063-132.480469 61.199219zm0 0" fill="#6e76e5"/><path d="m139.65625 290.613281c46.046875-16.035156 90.417969-36.53125 132.480469-61.199219 42.390625-24.09375 82.339843-52.253906 119.28125-84.082031 54.71875-48.160156 83.277343-93.039062 69.359375-117.199219-13.921875-24.160156-67.039063-21.839843-136.160156 1.519532 7.769531 5.429687 15.003906 11.589844 21.597656 18.402344 32.882812-9.203126 55.921875-9.523438 62.082031 1.117187 5.917969 10.320313-4.878906 29.039063-27.519531 51.839844-38.867188 36.417969-82.074219 67.90625-128.640625 93.761719-45.675781 27.386718-94.550781 49.042968-145.519531 64.480468-31.039063 8.320313-52.722657 8.238282-58.640626-2.082031-6.160156-10.640625 5.679688-30.398437 30-54.238281-2.566406-9.15625-4.28125-18.53125-5.121093-28-54.71875 48.160156-83.277344 93.039062-69.359375 117.199218 13.921875 24.160157 67.039062 21.839844 136.160156-1.519531zm0 0" fill="#d5b4eb"/><path d="m106.617188 259.253906c50.96875-15.4375 99.84375-37.09375 145.519531-64.480468 46.566406-25.855469 89.773437-57.34375 128.640625-93.761719-7.816406-19.808594-19.574219-37.828125-34.5625-52.957031-6.59375-6.8125-13.828125-12.972657-21.597656-18.402344-48.789063-34.632813-112.832032-39.136719-165.984376-11.667969-53.15625 27.472656-86.527343 82.316406-86.496093 142.148437 0 5.039063.238281 9.921876.71875 14.800782.839843 9.46875 2.554687 18.84375 5.121093 28 5.636719 20.519531 15.378907 39.679687 28.640626 56.320312zm0 0" fill="#6e76e5"/></svg>