<svg height="512pt" viewBox="0 0 512 512" width="512pt" xmlns="http://www.w3.org/2000/svg"><path d="m512 256c0 141.386719-114.613281 256-256 256s-256-114.613281-256-256 114.613281-256 256-256 256 114.613281 256 256zm0 0" fill="#fe6a16"/><path d="m512 256c0-3.910156-.101562-7.800781-.277344-11.667969l-129.578125-129.578125-72.40625 59.605469-94.097656-94.09375-61.144531 49.097656 94.777344 94.777344-172.273438 141.820313 143.589844 143.589843c11.574218 1.601563 23.394531 2.449219 35.410156 2.449219 141.386719 0 256-114.613281 256-256zm0 0" fill="#f24500"/><path d="m108.371094 154.242188h295.257812v200.988281h-295.257812zm0 0" fill="#414952"/><path d="m255.214844 154.242188h148.414062v200.988281h-148.414062zm0 0" fill="#333940"/><path d="m126.710938 174.480469h258.578124v154.511719h-258.578124zm0 0" fill="#ffd400"/><path d="m255.214844 174.480469h130.074218v154.511719h-130.074218zm0 0" fill="#fdba12"/><path d="m250.914062 272.457031-60.304687-134.070312 20.0625-9.023438 46.496094 103.363281 89.335937-98.835937 16.316406 14.753906zm0 0" fill="#fff"/><path d="m346.503906 133.890625-89.335937 98.835937-1.953125-4.339843v39.308593l107.605468-119.050781zm0 0" fill="#e9edf5"/><path d="m310.355469 252.59375c0 31.101562-25.214844 56.3125-56.316407 56.3125-31.101562 0-56.316406-25.210938-56.316406-56.3125 0-31.105469 25.214844-56.316406 56.316406-56.316406 31.101563 0 56.316407 25.210937 56.316407 56.316406zm0 0" fill="#4a7aff"/><path d="m310.355469 252.59375c0-30.710938-24.582031-55.660156-55.140625-56.289062v112.574218c30.558594-.628906 55.140625-25.578125 55.140625-56.285156zm0 0" fill="#2864f0"/><path d="m222.949219 103.070312c0 21.691407-17.585938 39.277344-39.277344 39.277344-21.695313 0-39.277344-17.585937-39.277344-39.277344 0-21.691406 17.582031-39.277343 39.277344-39.277343 21.691406 0 39.277344 17.585937 39.277344 39.277343zm0 0" fill="#4a7aff"/><path d="m392.859375 141.269531c0 21.09375-17.101563 38.195313-38.195313 38.195313-21.097656 0-38.199218-17.101563-38.199218-38.195313 0-21.097656 17.101562-38.199219 38.199218-38.199219 21.09375 0 38.195313 17.101563 38.195313 38.199219zm0 0" fill="#2864f0"/><path d="m77 322.234375h358v43.726563h-358zm0 0" fill="#636978"/><path d="m255.214844 322.230469h179.785156v43.730469h-179.785156zm0 0" fill="#555a66"/></svg>